<?xml version="1.0" encoding="UTF-8" standalone="no"?>
<!-- Created with Inkscape (http://www.inkscape.org/) -->

<svg
   xmlns:dc="http://purl.org/dc/elements/1.1/"
   xmlns:cc="http://creativecommons.org/ns#"
   xmlns:rdf="http://www.w3.org/1999/02/22-rdf-syntax-ns#"
   xmlns:svg="http://www.w3.org/2000/svg"
   xmlns="http://www.w3.org/2000/svg"
   xmlns:sodipodi="http://sodipodi.sourceforge.net/DTD/sodipodi-0.dtd"
   xmlns:inkscape="http://www.inkscape.org/namespaces/inkscape"
   width="100mm"
   height="100mm"
   viewBox="0 0 100 100"
   version="1.1"
   id="svg4521"
   inkscape:version="0.92.1 r15371"
   sodipodi:docname="PooDLL.svg">
  <defs
     id="defs4515" />
  <sodipodi:namedview
     id="base"
     pagecolor="#ffffff"
     bordercolor="#666666"
     borderopacity="1.0"
     inkscape:pageopacity="0.0"
     inkscape:pageshadow="2"
     inkscape:zoom="0.98994949"
     inkscape:cx="257.74181"
     inkscape:cy="160.3322"
     inkscape:document-units="mm"
     inkscape:current-layer="layer1"
     showgrid="false"
     inkscape:pagecheckerboard="true"
     inkscape:window-width="1920"
     inkscape:window-height="1016"
     inkscape:window-x="0"
     inkscape:window-y="27"
     inkscape:window-maximized="1" />
  <metadata
     id="metadata4518">
    <rdf:RDF>
      <cc:Work
         rdf:about="">
        <dc:format>image/svg+xml</dc:format>
        <dc:type
           rdf:resource="http://purl.org/dc/dcmitype/StillImage" />
        <dc:title></dc:title>
      </cc:Work>
    </rdf:RDF>
  </metadata>
  <g
     inkscape:label="Layer 1"
     inkscape:groupmode="layer"
     id="layer1"
     transform="translate(0,-197)">
    <path
       id="path4571"
       d="M 72.65388,226.99999 H 27.346473 c -2.081835,0 -3.132323,2.52598 -1.657226,4.00108 l 18.060736,18.06347 v 20.12294 c 0,0.76474 0.373145,1.48144 0.999707,1.92012 l 7.812497,5.46679 c 1.541308,1.07891 3.687792,-0.0145 3.687792,-1.92012 v -25.58973 l 18.061223,-18.06347 c 1.47207,-1.47217 0.42881,-4.00108 -1.657322,-4.00108 z"
       inkscape:connector-curvature="0"
       style="stroke-width:0.09765621" />
    <path
       id="path4630"
       d="m 61.446873,218.62926 c 1.013672,-0.77051 1.678126,-1.97637 1.678126,-3.34805 0,-2.33027 -1.889063,-4.21875 -4.21875,-4.21875 h -0.824415 c 0.786329,-0.6873 1.293166,-1.68633 1.293166,-2.8125 0,-2.07129 -1.678713,-3.75 -3.749999,-3.75 h -0.344532 c 0.209179,-0.58887 0.344532,-1.21406 0.344532,-1.875 0,-3.10664 -2.518361,-5.625 -5.625001,-5.625 -0.30293,0 -0.594727,0.0434 -0.885352,0.0891 C 49.666601,197.85781 50,198.79414 50,199.8125 50,202.40117 47.901171,204.5 45.3125,204.5 H 44.375 c -2.071289,0 -3.75,1.67871 -3.75,3.75 0,1.12617 0.506836,2.1252 1.293164,2.8125 H 41.09375 c -2.329688,0 -4.21875,1.88848 -4.21875,4.21875 0,1.37168 0.664453,2.57754 1.678125,3.34805 C 36.541602,218.95039 35,220.67891 35,222.78125 35,225.11094 36.889063,227 39.21875,227 h 21.5625 C 63.110936,227 65,225.11094 65,222.78125 c 0,-2.10234 -1.541603,-3.83086 -3.553127,-4.15195 z"
       inkscape:connector-curvature="0"
       style="stroke-width:0.05859375;fill:#422518;fill-opacity:1" />
    <path
       id="path4689"
       d="m 57.5,217.15628 c 0,2.84771 -2.308538,5.15622 -5.15625,5.15622 -0.32871,0 -0.6501,-0.0311 -0.961725,-0.0899 l -0.703477,0.79142 A 0.70309568,0.70309568 0 0 1 50.153015,223.25 H 49.0625 v 1.17188 c 0,0.38832 -0.314797,0.70312 -0.703125,0.70312 H 47.1875 v 1.17188 C 47.1875,226.6852 46.872703,227 46.484375,227 h -3.28125 C 42.814797,227 42.5,226.6852 42.5,226.29688 v -2.28689 c 0,-0.18647 0.0741,-0.36533 0.205928,-0.4972 l 4.740292,-4.74029 c -0.167662,-0.50842 -0.25872,-1.05167 -0.25872,-1.61625 0,-2.84771 2.308508,-5.15622 5.15622,-5.15625 2.85612,-3e-5 5.15628,2.30013 5.15628,5.15628 z M 52.34375,215.75 c 0,0.77666 0.629587,1.40625 1.40625,1.40625 0.776662,0 1.40625,-0.62959 1.40625,-1.40625 0,-0.77666 -0.629588,-1.40625 -1.40625,-1.40625 -0.776663,0 -1.40625,0.62959 -1.40625,1.40625 z"
       inkscape:connector-curvature="0"
       style="stroke-width:0.02929688;fill:#ffd700;fill-opacity:1" />
    <path
       id="path4748"
       d="m 57.5,287.15627 c 0,2.84771 -2.308536,5.15622 -5.15625,5.15622 -0.328711,0 -0.650098,-0.0311 -0.961729,-0.0899 l -0.703476,0.79142 A 0.70309568,0.70309568 0 0 1 50.153017,293.25 H 49.0625 v 1.17188 c 0,0.38833 -0.314795,0.70312 -0.703125,0.70312 H 47.1875 v 1.17188 c 0,0.38833 -0.314795,0.70312 -0.703125,0.70312 h -3.28125 C 42.814795,297 42.5,296.68521 42.5,296.29688 v -2.28689 c 0,-0.18647 0.07409,-0.36533 0.205928,-0.4972 l 4.740292,-4.74029 c -0.167666,-0.50842 -0.25872,-1.05167 -0.25872,-1.61625 0,-2.84771 2.308505,-5.15622 5.15622,-5.15625 2.856123,-3e-5 5.15628,2.30013 5.15628,5.15628 z m -5.15625,-1.40628 c 0,0.77666 0.62959,1.40625 1.406249,1.40625 0.77666,0 1.40625,-0.62959 1.40625,-1.40625 0,-0.77666 -0.62959,-1.40625 -1.40625,-1.40625 -0.776659,0 -1.406249,0.62959 -1.406249,1.40625 z"
       inkscape:connector-curvature="0"
       style="stroke-width:0.02929687;fill:#ffd700;fill-opacity:1" />
  </g>
</svg>
